<?xml version="1.0" standalone="no"?>
<!DOCTYPE svg PUBLIC "-//W3C//DTD SVG 20010904//EN"
 "http://www.w3.org/TR/2001/REC-SVG-20010904/DTD/svg10.dtd">
<svg version="1.0" xmlns="http://www.w3.org/2000/svg"
 width="500.000000pt" height="500.000000pt" viewBox="0 0 500.000000 500.000000"
 preserveAspectRatio="xMidYMid meet">

<g transform="translate(0.000000,500.000000) scale(0.100000,-0.100000)"
fill="#000000" stroke="none">
<path d="M2365 4273 c-564 -46 -1072 -355 -1373 -833 -145 -230 -239 -515
-263 -798 -71 -811 452 -1590 1231 -1836 640 -203 1322 -37 1796 438 355 355
541 827 521 1321 -16 393 -149 745 -398 1055 -359 446 -947 700 -1514 653z
m489 -53 c471 -102 855 -364 1119 -765 188 -285 279 -598 280 -955 0 -353 -97
-681 -288 -969 -77 -117 -123 -171 -240 -286 -266 -261 -599 -427 -967 -481
-166 -24 -471 -15 -623 19 -205 46 -388 119 -550 220 -421 261 -710 675 -806
1156 -27 135 -37 418 -19 558 90 717 610 1306 1309 1483 166 42 244 49 471 46
172 -3 235 -8 314 -26z"/>
<path d="M2456 3254 c-115 -42 -204 -155 -220 -279 -9 -70 9 -129 103 -338 59
-129 78 -183 72 -195 -13 -24 -18 -64 -51 -397 -17 -165 -28 -310 -25 -322 8
-32 41 -50 106 -58 50 -5 60 -3 83 17 25 22 27 31 47 223 39 385 48 490 43
515 -3 20 20 59 107 180 156 217 164 234 164 345 0 111 -15 146 -100 230 -41
42 -75 66 -110 78 -60 21 -164 21 -219 1z m119 -56 c-3 -24 -21 -196 -40 -382
-19 -186 -37 -341 -40 -344 -10 -11 -16 8 -50 178 -38 189 -44 296 -21 392 23
97 95 197 144 198 10 0 12 -11 7 -42z m108 -40 c35 -69 46 -175 27 -274 -7
-38 -46 -147 -86 -242 -75 -178 -80 -189 -89 -180 -6 5 61 708 71 756 4 22 7
23 27 10 12 -8 35 -39 50 -70z m-223 30 c-47 -67 -73 -151 -78 -253 -3 -75 2
-121 32 -274 20 -101 35 -185 33 -187 -1 -2 -42 85 -91 193 -104 230 -113 277
-76 377 27 70 89 142 145 167 61 28 68 23 35 -23z m291 -10 c63 -49 101 -124
107 -212 7 -120 0 -134 -229 -449 -23 -32 -43 -56 -45 -54 -2 2 28 80 67 173
71 169 99 264 99 340 0 60 -19 153 -41 196 -24 47 -13 48 42 6z m-168 -757 c9
-9 -29 -460 -49 -578 l-5 -33 -77 7 c-42 3 -79 7 -81 9 -7 7 50 568 60 593 9
23 13 24 76 18 37 -4 71 -11 76 -16z m-64 -640 c10 -1 12 -9 7 -33 -10 -53
-23 -61 -85 -54 -30 4 -61 12 -68 18 -12 10 -19 69 -8 79 2 3 35 2 72 -2 37
-5 74 -8 82 -8z"/>
<path d="M1740 1271 c0 -5 9 -13 20 -16 26 -8 25 -21 -4 -72 -31 -53 -42 -88
-27 -79 6 4 25 34 41 67 28 54 32 58 51 49 11 -6 25 -10 31 -8 6 2 -17 19 -51
37 -33 17 -61 28 -61 22z"/>
<path d="M3228 1244 c-27 -13 -48 -27 -48 -29 0 -10 70 -145 75 -145 13 0 115
55 115 62 0 5 -23 -3 -51 -18 -28 -14 -52 -24 -54 -22 -6 7 -25 47 -25 52 0 3
18 15 41 26 23 12 39 24 36 26 -3 3 -23 -4 -46 -15 l-40 -21 -17 25 c-19 30
-21 26 34 54 39 20 52 32 35 31 -5 -1 -29 -12 -55 -26z"/>
<path d="M1894 1175 c-55 -23 -71 -99 -29 -140 30 -31 93 -34 118 -7 42 47 39
118 -6 140 -40 19 -53 20 -83 7z m82 -30 c15 -15 23 -32 20 -41 -3 -9 -6 -21
-6 -28 0 -21 -40 -56 -64 -56 -12 0 -33 10 -45 21 -19 18 -22 29 -17 58 6 39
37 71 68 71 10 0 30 -11 44 -25z"/>
<path d="M3073 1174 c-55 -27 -62 -95 -16 -146 34 -38 133 -9 133 38 0 11 -9
6 -29 -15 -16 -17 -36 -31 -44 -31 -24 0 -64 41 -71 73 -9 40 33 82 75 73 30
-6 41 7 13 18 -21 8 -25 8 -61 -10z"/>
<path d="M2060 1088 c-6 -24 -16 -58 -22 -76 -13 -42 -5 -50 54 -58 41 -6 49
-3 72 19 52 52 40 114 -29 143 -53 22 -63 18 -75 -28z m74 12 c37 -14 50 -44
36 -85 -6 -18 -18 -36 -26 -39 -22 -9 -82 -7 -87 2 -9 13 27 132 40 132 6 0
23 -4 37 -10z"/>
<path d="M2880 1098 c0 -7 8 -42 18 -78 21 -73 36 -82 93 -56 l34 15 -46 -5
-47 -6 -18 71 c-10 39 -22 71 -26 71 -4 0 -8 -6 -8 -12z"/>
<path d="M2825 1027 c7 -69 6 -76 -13 -86 -50 -27 -78 -3 -87 74 -10 76 -30
86 -22 11 8 -79 27 -106 76 -106 60 0 75 24 66 105 -3 35 -11 68 -17 71 -7 4
-8 -19 -3 -69z"/>
<path d="M2273 1080 c-41 -17 -59 -91 -34 -138 12 -23 67 -38 105 -28 31 8 60
67 51 107 -10 47 -76 78 -122 59z m89 -41 c25 -33 13 -87 -23 -108 -22 -12
-29 -12 -55 0 -25 12 -29 21 -32 58 -2 30 2 49 14 63 25 26 72 20 96 -13z"/>
<path d="M2517 1063 c-2 -5 -2 -43 1 -85 l4 -78 47 0 c64 0 91 25 91 85 0 56
-32 85 -96 85 -23 0 -45 -3 -47 -7z m111 -25 c17 -17 15 -93 -2 -107 -8 -7
-30 -15 -50 -18 l-36 -6 0 56 c0 30 -3 62 -6 71 -5 13 2 16 38 16 24 0 49 -5
56 -12z"/>
</g>
</svg>
